<svg viewBox="0 0 400 400" xmlns="http://www.w3.org/2000/svg" role="img" aria-label="Semolina (Sooji / Rava) close-up in bowl">
  <defs>
    <radialGradient id="bgrad2semolina-sooji-ravab" cx="50%" cy="35%" r="75%">
      <stop offset="0%" stop-color="#F7F0DF"/>
      <stop offset="100%" stop-color="#E7DABA"/>
    </radialGradient>
    <radialGradient id="bowlGradsemolina-sooji-ravab" cx="50%" cy="35%" r="65%">
      <stop offset="0%" stop-color="#FBF6EA"/>
      <stop offset="100%" stop-color="#D8C79A"/>
    </radialGradient>
    <radialGradient id="fillGradsemolina-sooji-ravab" cx="50%" cy="40%" r="60%">
      <stop offset="0%" stop-color="#E6D7B0"/>
      <stop offset="100%" stop-color="#C7B383"/>
    </radialGradient>
  </defs>
  <rect width="400" height="400" fill="url(#bgrad2semolina-sooji-ravab)"/>
  <ellipse cx="200" cy="355" rx="130" ry="16" fill="#00000022"/>
  <ellipse cx="200" cy="330" rx="150" ry="34" fill="url(#bowlGradsemolina-sooji-ravab)" stroke="#4A0D16" stroke-width="1.5"/>
  <path d="M60 250 Q60 335 200 335 Q340 335 340 250 L330 235 Q200 300 70 235 Z" fill="url(#bowlGradsemolina-sooji-ravab)" stroke="#4A0D16" stroke-width="1.5"/>
  <ellipse cx="200" cy="235" rx="130" ry="40" fill="url(#fillGradsemolina-sooji-ravab)" stroke="#4A0D16" stroke-width="1.5"/>
  <ellipse cx="200" cy="230" rx="118" ry="32" fill="#E6D7B0"/>
  <circle cx="112.4" cy="205.0" r="1.1" fill="#D8C089" opacity="0.7"/>
<circle cx="307.3" cy="212.3" r="1.0" fill="#D8C089" opacity="0.7"/>
<circle cx="217.9" cy="166.3" r="1.1" fill="#D8C089" opacity="0.7"/>
<circle cx="166.8" cy="276.6" r="1.2" fill="#D8C089" opacity="0.7"/>
<circle cx="284.3" cy="230.3" r="0.9" fill="#D8C089" opacity="0.7"/>
<circle cx="308.5" cy="313.2" r="1.6" fill="#D8C089" opacity="0.7"/>
<circle cx="186.9" cy="293.0" r="0.9" fill="#D8C089" opacity="0.7"/>
<circle cx="125.3" cy="261.1" r="1.3" fill="#D8C089" opacity="0.7"/>
<circle cx="145.5" cy="165.8" r="1.1" fill="#D8C089" opacity="0.7"/>
<circle cx="153.3" cy="150.5" r="1.2" fill="#D8C089" opacity="0.7"/>
<circle cx="131.8" cy="244.1" r="1.3" fill="#D8C089" opacity="0.7"/>
<circle cx="194.0" cy="218.2" r="1.3" fill="#D8C089" opacity="0.7"/>
<circle cx="251.8" cy="222.8" r="1.7" fill="#D8C089" opacity="0.7"/>
<circle cx="105.0" cy="211.5" r="1.6" fill="#D8C089" opacity="0.7"/>
<circle cx="144.6" cy="166.3" r="1.7" fill="#D8C089" opacity="0.7"/>
<circle cx="159.3" cy="244.7" r="1.4" fill="#D8C089" opacity="0.7"/>
<circle cx="128.0" cy="316.6" r="1.5" fill="#D8C089" opacity="0.7"/>
<circle cx="105.7" cy="313.8" r="1.5" fill="#D8C089" opacity="0.7"/>
<circle cx="204.6" cy="306.9" r="1.5" fill="#D8C089" opacity="0.7"/>
<circle cx="224.5" cy="315.7" r="1.3" fill="#D8C089" opacity="0.7"/>
<circle cx="254.5" cy="237.1" r="1.4" fill="#D8C089" opacity="0.7"/>
<circle cx="197.4" cy="292.4" r="1.3" fill="#D8C089" opacity="0.7"/>
<circle cx="155.3" cy="154.4" r="1.7" fill="#D8C089" opacity="0.7"/>
<circle cx="94.0" cy="180.3" r="1.6" fill="#D8C089" opacity="0.7"/>
<circle cx="306.4" cy="179.7" r="1.8" fill="#D8C089" opacity="0.7"/>
<circle cx="162.0" cy="205.9" r="1.0" fill="#D8C089" opacity="0.7"/>
<circle cx="303.5" cy="229.1" r="1.5" fill="#D8C089" opacity="0.7"/>
<circle cx="200.8" cy="169.1" r="1.5" fill="#D8C089" opacity="0.7"/>
<circle cx="291.8" cy="213.0" r="1.5" fill="#D8C089" opacity="0.7"/>
<circle cx="108.2" cy="311.9" r="1.0" fill="#D8C089" opacity="0.7"/>
<circle cx="222.8" cy="180.1" r="1.3" fill="#D8C089" opacity="0.7"/>
<circle cx="205.3" cy="165.0" r="1.7" fill="#D8C089" opacity="0.7"/>
<circle cx="192.8" cy="218.1" r="0.8" fill="#D8C089" opacity="0.7"/>
<circle cx="161.7" cy="189.2" r="1.5" fill="#D8C089" opacity="0.7"/>
<circle cx="196.7" cy="170.5" r="1.5" fill="#D8C089" opacity="0.7"/>
<circle cx="141.7" cy="266.0" r="1.6" fill="#D8C089" opacity="0.7"/>
<circle cx="234.1" cy="236.1" r="1.5" fill="#D8C089" opacity="0.7"/>
<circle cx="118.4" cy="306.5" r="1.1" fill="#D8C089" opacity="0.7"/>
<circle cx="235.0" cy="157.4" r="1.2" fill="#D8C089" opacity="0.7"/>
<circle cx="291.3" cy="170.8" r="1.2" fill="#D8C089" opacity="0.7"/>
<circle cx="227.5" cy="164.5" r="1.0" fill="#D8C089" opacity="0.7"/>
<circle cx="299.4" cy="239.6" r="1.2" fill="#D8C089" opacity="0.7"/>
<circle cx="132.1" cy="316.1" r="1.5" fill="#D8C089" opacity="0.7"/>
<circle cx="171.7" cy="212.9" r="1.1" fill="#D8C089" opacity="0.7"/>
<circle cx="154.4" cy="234.0" r="1.2" fill="#D8C089" opacity="0.7"/>
<circle cx="276.6" cy="277.8" r="1.6" fill="#D8C089" opacity="0.7"/>
<circle cx="196.1" cy="212.2" r="1.5" fill="#D8C089" opacity="0.7"/>
<circle cx="107.4" cy="282.8" r="1.6" fill="#D8C089" opacity="0.7"/>
<circle cx="290.4" cy="156.7" r="1.7" fill="#D8C089" opacity="0.7"/>
<circle cx="280.9" cy="157.1" r="0.9" fill="#D8C089" opacity="0.7"/>
<circle cx="161.5" cy="227.1" r="0.9" fill="#D8C089" opacity="0.7"/>
<circle cx="171.4" cy="233.9" r="1.8" fill="#D8C089" opacity="0.7"/>
<circle cx="306.3" cy="251.4" r="1.7" fill="#D8C089" opacity="0.7"/>
<circle cx="297.5" cy="230.6" r="1.6" fill="#D8C089" opacity="0.7"/>
<circle cx="221.3" cy="274.6" r="0.9" fill="#D8C089" opacity="0.7"/>
<circle cx="302.4" cy="247.3" r="1.4" fill="#D8C089" opacity="0.7"/>
<circle cx="238.8" cy="316.6" r="0.9" fill="#D8C089" opacity="0.7"/>
<circle cx="93.9" cy="318.9" r="0.9" fill="#D8C089" opacity="0.7"/>
<circle cx="159.3" cy="199.8" r="1.2" fill="#D8C089" opacity="0.7"/>
<circle cx="187.9" cy="202.4" r="0.9" fill="#D8C089" opacity="0.7"/>
<circle cx="219.4" cy="278.0" r="1.0" fill="#D8C089" opacity="0.7"/>
<circle cx="192.0" cy="229.5" r="1.4" fill="#D8C089" opacity="0.7"/>
<circle cx="229.7" cy="164.2" r="1.5" fill="#D8C089" opacity="0.7"/>
<circle cx="139.5" cy="205.7" r="1.2" fill="#D8C089" opacity="0.7"/>
<circle cx="133.6" cy="288.2" r="1.5" fill="#D8C089" opacity="0.7"/>
<circle cx="98.9" cy="183.0" r="1.4" fill="#D8C089" opacity="0.7"/>
<circle cx="243.5" cy="157.4" r="1.4" fill="#D8C089" opacity="0.7"/>
<circle cx="196.5" cy="228.1" r="1.8" fill="#D8C089" opacity="0.7"/>
<circle cx="107.1" cy="173.7" r="1.0" fill="#D8C089" opacity="0.7"/>
<circle cx="231.2" cy="214.4" r="1.7" fill="#D8C089" opacity="0.7"/>
<circle cx="265.2" cy="173.2" r="1.1" fill="#D8C089" opacity="0.7"/>
<circle cx="164.9" cy="294.1" r="1.1" fill="#D8C089" opacity="0.7"/>
<circle cx="146.1" cy="214.1" r="0.9" fill="#D8C089" opacity="0.7"/>
<circle cx="280.1" cy="240.0" r="1.4" fill="#D8C089" opacity="0.7"/>
<circle cx="163.6" cy="318.9" r="1.4" fill="#D8C089" opacity="0.7"/>
<circle cx="90.8" cy="310.3" r="1.0" fill="#D8C089" opacity="0.7"/>
<circle cx="157.1" cy="220.8" r="1.3" fill="#D8C089" opacity="0.7"/>
<circle cx="293.2" cy="223.2" r="0.8" fill="#D8C089" opacity="0.7"/>
<circle cx="260.9" cy="251.0" r="1.5" fill="#D8C089" opacity="0.7"/>
<circle cx="97.7" cy="258.5" r="1.0" fill="#D8C089" opacity="0.7"/>
<circle cx="121.2" cy="164.4" r="1.5" fill="#D8C089" opacity="0.7"/>
<circle cx="138.8" cy="310.9" r="1.7" fill="#D8C089" opacity="0.7"/>
<circle cx="203.5" cy="173.5" r="1.1" fill="#D8C089" opacity="0.7"/>
<circle cx="188.7" cy="150.0" r="1.5" fill="#D8C089" opacity="0.7"/>
<circle cx="251.3" cy="161.8" r="1.6" fill="#D8C089" opacity="0.7"/>
<circle cx="287.0" cy="173.0" r="1.4" fill="#D8C089" opacity="0.7"/>
<circle cx="109.2" cy="188.5" r="1.7" fill="#D8C089" opacity="0.7"/>
<circle cx="256.6" cy="262.3" r="1.1" fill="#D8C089" opacity="0.7"/>
<circle cx="292.6" cy="207.3" r="1.0" fill="#D8C089" opacity="0.7"/>
<circle cx="93.0" cy="301.8" r="1.6" fill="#D8C089" opacity="0.7"/>
<circle cx="200.4" cy="237.2" r="1.7" fill="#D8C089" opacity="0.7"/>
<circle cx="159.6" cy="217.8" r="1.1" fill="#D8C089" opacity="0.7"/>
<circle cx="136.6" cy="173.5" r="1.0" fill="#D8C089" opacity="0.7"/>
<circle cx="216.7" cy="193.7" r="1.0" fill="#D8C089" opacity="0.7"/>
<circle cx="248.1" cy="311.5" r="1.0" fill="#D8C089" opacity="0.7"/>
<circle cx="249.5" cy="204.4" r="1.1" fill="#D8C089" opacity="0.7"/>
<circle cx="299.0" cy="226.3" r="0.9" fill="#D8C089" opacity="0.7"/>
<circle cx="98.4" cy="316.8" r="0.9" fill="#D8C089" opacity="0.7"/>
<circle cx="95.7" cy="198.0" r="0.8" fill="#D8C089" opacity="0.7"/>
<circle cx="109.5" cy="313.0" r="1.7" fill="#D8C089" opacity="0.7"/>
<circle cx="187.6" cy="154.0" r="1.5" fill="#D8C089" opacity="0.7"/>
<circle cx="270.0" cy="249.2" r="1.6" fill="#D8C089" opacity="0.7"/>
<circle cx="224.3" cy="261.2" r="1.3" fill="#D8C089" opacity="0.7"/>
<circle cx="279.3" cy="167.2" r="1.5" fill="#D8C089" opacity="0.7"/>
<circle cx="244.5" cy="299.4" r="1.0" fill="#D8C089" opacity="0.7"/>
<circle cx="100.1" cy="293.3" r="1.4" fill="#D8C089" opacity="0.7"/>
<circle cx="127.5" cy="319.2" r="1.5" fill="#D8C089" opacity="0.7"/>
<circle cx="287.3" cy="170.7" r="1.1" fill="#D8C089" opacity="0.7"/>
<circle cx="120.9" cy="151.9" r="0.9" fill="#D8C089" opacity="0.7"/>
<circle cx="295.2" cy="260.6" r="1.1" fill="#D8C089" opacity="0.7"/>
<circle cx="167.3" cy="156.7" r="1.5" fill="#D8C089" opacity="0.7"/>
<circle cx="256.1" cy="261.7" r="0.8" fill="#D8C089" opacity="0.7"/>
<circle cx="104.4" cy="218.5" r="1.4" fill="#D8C089" opacity="0.7"/>
<circle cx="228.1" cy="231.9" r="1.6" fill="#D8C089" opacity="0.7"/>
<circle cx="293.8" cy="183.0" r="1.3" fill="#D8C089" opacity="0.7"/>
<circle cx="224.1" cy="238.3" r="1.6" fill="#D8C089" opacity="0.7"/>
<circle cx="265.7" cy="199.5" r="1.5" fill="#D8C089" opacity="0.7"/>
<circle cx="155.9" cy="295.6" r="0.9" fill="#D8C089" opacity="0.7"/>
<circle cx="229.8" cy="153.8" r="1.2" fill="#D8C089" opacity="0.7"/>
<circle cx="109.8" cy="223.6" r="1.6" fill="#D8C089" opacity="0.7"/>
<circle cx="169.3" cy="249.4" r="1.5" fill="#D8C089" opacity="0.7"/>
<circle cx="256.4" cy="169.3" r="1.5" fill="#D8C089" opacity="0.7"/>
<circle cx="208.4" cy="228.6" r="1.6" fill="#D8C089" opacity="0.7"/>
<circle cx="198.9" cy="234.9" r="1.2" fill="#D8C089" opacity="0.7"/>
<circle cx="164.5" cy="230.8" r="1.8" fill="#D8C089" opacity="0.7"/>
<circle cx="202.3" cy="280.5" r="1.7" fill="#D8C089" opacity="0.7"/>
<circle cx="121.3" cy="203.6" r="1.0" fill="#D8C089" opacity="0.7"/>
<circle cx="137.7" cy="290.5" r="1.1" fill="#D8C089" opacity="0.7"/>
<circle cx="117.1" cy="194.5" r="1.1" fill="#D8C089" opacity="0.7"/>
<circle cx="250.8" cy="273.0" r="1.4" fill="#D8C089" opacity="0.7"/>
<circle cx="144.4" cy="260.3" r="1.0" fill="#D8C089" opacity="0.7"/>
<circle cx="148.5" cy="176.4" r="1.6" fill="#D8C089" opacity="0.7"/>
<circle cx="163.1" cy="169.9" r="1.3" fill="#D8C089" opacity="0.7"/>
<circle cx="131.6" cy="246.8" r="1.6" fill="#D8C089" opacity="0.7"/>
<circle cx="307.6" cy="204.5" r="1.0" fill="#D8C089" opacity="0.7"/>
<circle cx="127.8" cy="243.5" r="1.1" fill="#D8C089" opacity="0.7"/>
<circle cx="161.1" cy="194.3" r="1.0" fill="#D8C089" opacity="0.7"/>
<circle cx="292.8" cy="223.1" r="1.0" fill="#D8C089" opacity="0.7"/>
<circle cx="230.1" cy="287.2" r="1.2" fill="#D8C089" opacity="0.7"/>
<circle cx="300.9" cy="276.2" r="1.4" fill="#D8C089" opacity="0.7"/>
<circle cx="238.6" cy="258.8" r="1.4" fill="#D8C089" opacity="0.7"/>
<circle cx="209.8" cy="257.1" r="1.1" fill="#D8C089" opacity="0.7"/>
<circle cx="112.5" cy="281.2" r="1.6" fill="#D8C089" opacity="0.7"/>
<circle cx="94.9" cy="269.6" r="0.8" fill="#D8C089" opacity="0.7"/>
<circle cx="165.6" cy="205.8" r="1.5" fill="#D8C089" opacity="0.7"/>
<circle cx="138.2" cy="216.9" r="1.3" fill="#D8C089" opacity="0.7"/>
<circle cx="202.0" cy="221.4" r="1.2" fill="#D8C089" opacity="0.7"/>
<circle cx="184.2" cy="285.0" r="1.1" fill="#D8C089" opacity="0.7"/>
<circle cx="170.3" cy="280.6" r="1.5" fill="#D8C089" opacity="0.7"/>
<circle cx="130.4" cy="223.9" r="1.4" fill="#D8C089" opacity="0.7"/>
<circle cx="155.2" cy="319.0" r="1.3" fill="#D8C089" opacity="0.7"/>
<circle cx="266.9" cy="152.0" r="1.4" fill="#D8C089" opacity="0.7"/>
<circle cx="208.6" cy="250.8" r="1.5" fill="#D8C089" opacity="0.7"/>
<circle cx="272.0" cy="208.5" r="1.5" fill="#D8C089" opacity="0.7"/>
<circle cx="156.3" cy="292.3" r="1.1" fill="#D8C089" opacity="0.7"/>
<circle cx="125.7" cy="264.5" r="1.2" fill="#D8C089" opacity="0.7"/>
<circle cx="217.0" cy="159.3" r="1.2" fill="#D8C089" opacity="0.7"/>
<circle cx="183.7" cy="155.4" r="0.9" fill="#D8C089" opacity="0.7"/>
<circle cx="225.8" cy="176.5" r="0.9" fill="#D8C089" opacity="0.7"/>
<circle cx="203.3" cy="247.1" r="1.7" fill="#D8C089" opacity="0.7"/>
<circle cx="155.0" cy="194.7" r="1.6" fill="#D8C089" opacity="0.7"/>
<circle cx="246.5" cy="205.7" r="0.9" fill="#D8C089" opacity="0.7"/>
<circle cx="191.7" cy="230.2" r="1.6" fill="#D8C089" opacity="0.7"/>
<circle cx="306.9" cy="243.9" r="1.1" fill="#D8C089" opacity="0.7"/>
<circle cx="156.6" cy="310.6" r="1.3" fill="#D8C089" opacity="0.7"/>
<circle cx="247.8" cy="277.9" r="1.6" fill="#D8C089" opacity="0.7"/>
<circle cx="143.2" cy="271.5" r="1.6" fill="#D8C089" opacity="0.7"/>
<circle cx="264.3" cy="301.7" r="1.2" fill="#D8C089" opacity="0.7"/>
<circle cx="118.8" cy="294.6" r="1.0" fill="#D8C089" opacity="0.7"/>
<circle cx="294.9" cy="306.0" r="1.3" fill="#D8C089" opacity="0.7"/>
<circle cx="278.3" cy="187.8" r="1.1" fill="#D8C089" opacity="0.7"/>
<circle cx="130.0" cy="236.8" r="1.7" fill="#D8C089" opacity="0.7"/>
<circle cx="167.6" cy="204.2" r="1.8" fill="#D8C089" opacity="0.7"/>
<circle cx="241.3" cy="280.6" r="1.1" fill="#D8C089" opacity="0.7"/>
<circle cx="208.1" cy="202.0" r="1.0" fill="#D8C089" opacity="0.7"/>
<circle cx="171.8" cy="307.9" r="1.8" fill="#D8C089" opacity="0.7"/>
<circle cx="209.6" cy="214.5" r="1.2" fill="#D8C089" opacity="0.7"/>
<circle cx="243.2" cy="287.7" r="1.2" fill="#D8C089" opacity="0.7"/>
<circle cx="286.3" cy="240.2" r="1.3" fill="#D8C089" opacity="0.7"/>
<circle cx="120.2" cy="151.3" r="0.9" fill="#D8C089" opacity="0.7"/>
<circle cx="159.1" cy="277.9" r="1.3" fill="#D8C089" opacity="0.7"/>
<circle cx="97.8" cy="216.9" r="1.4" fill="#D8C089" opacity="0.7"/>
<circle cx="124.2" cy="188.1" r="1.7" fill="#D8C089" opacity="0.7"/>
<circle cx="272.9" cy="209.4" r="1.5" fill="#D8C089" opacity="0.7"/>
<circle cx="182.5" cy="193.5" r="1.0" fill="#D8C089" opacity="0.7"/>
<circle cx="262.2" cy="276.7" r="0.9" fill="#D8C089" opacity="0.7"/>
<circle cx="246.5" cy="244.1" r="1.3" fill="#D8C089" opacity="0.7"/>
<circle cx="144.7" cy="250.7" r="0.8" fill="#D8C089" opacity="0.7"/>
<circle cx="300.0" cy="165.4" r="1.2" fill="#D8C089" opacity="0.7"/>
<circle cx="98.8" cy="227.2" r="1.5" fill="#D8C089" opacity="0.7"/>
<circle cx="93.3" cy="304.0" r="1.2" fill="#D8C089" opacity="0.7"/>
<circle cx="210.4" cy="150.4" r="1.1" fill="#D8C089" opacity="0.7"/>
<circle cx="223.3" cy="207.2" r="0.9" fill="#D8C089" opacity="0.7"/>
<circle cx="258.7" cy="150.8" r="1.2" fill="#D8C089" opacity="0.7"/>
<circle cx="284.8" cy="198.8" r="1.6" fill="#D8C089" opacity="0.7"/>
<circle cx="103.2" cy="238.6" r="1.7" fill="#D8C089" opacity="0.7"/>
<circle cx="102.7" cy="299.5" r="1.7" fill="#D8C089" opacity="0.7"/>
<circle cx="269.5" cy="201.4" r="1.1" fill="#D8C089" opacity="0.7"/>
<circle cx="111.2" cy="273.4" r="1.4" fill="#D8C089" opacity="0.7"/>
<circle cx="252.8" cy="286.5" r="0.8" fill="#D8C089" opacity="0.7"/>
<circle cx="215.2" cy="159.7" r="1.4" fill="#D8C089" opacity="0.7"/>
<circle cx="213.1" cy="160.7" r="0.9" fill="#D8C089" opacity="0.7"/>
<circle cx="306.0" cy="151.0" r="1.6" fill="#D8C089" opacity="0.7"/>
<circle cx="223.7" cy="284.0" r="0.9" fill="#D8C089" opacity="0.7"/>
<circle cx="296.2" cy="274.1" r="1.7" fill="#D8C089" opacity="0.7"/>
<circle cx="241.7" cy="234.0" r="0.9" fill="#D8C089" opacity="0.7"/>
<circle cx="228.8" cy="170.4" r="1.6" fill="#D8C089" opacity="0.7"/>
<circle cx="203.0" cy="200.7" r="1.6" fill="#D8C089" opacity="0.7"/>
<circle cx="186.9" cy="178.2" r="1.3" fill="#D8C089" opacity="0.7"/>
<circle cx="176.7" cy="298.7" r="0.8" fill="#D8C089" opacity="0.7"/>
<circle cx="202.3" cy="216.2" r="1.2" fill="#D8C089" opacity="0.7"/>
<circle cx="114.0" cy="309.4" r="0.8" fill="#D8C089" opacity="0.7"/>
<circle cx="213.1" cy="251.0" r="1.0" fill="#D8C089" opacity="0.7"/>
<circle cx="265.1" cy="291.2" r="1.2" fill="#D8C089" opacity="0.7"/>
<circle cx="195.9" cy="313.2" r="0.9" fill="#D8C089" opacity="0.7"/>
<circle cx="271.1" cy="190.5" r="1.6" fill="#D8C089" opacity="0.7"/>
<circle cx="228.3" cy="158.9" r="1.5" fill="#D8C089" opacity="0.7"/>
<circle cx="244.9" cy="296.8" r="1.6" fill="#D8C089" opacity="0.7"/>
<circle cx="119.8" cy="287.8" r="1.4" fill="#D8C089" opacity="0.7"/>
<circle cx="95.5" cy="157.5" r="1.0" fill="#D8C089" opacity="0.7"/>
  <g transform="translate(115,175) scale(0.85)" opacity="0.9">
<line x1="0" y1="-46" x2="0" y2="30" stroke="#6B1220" stroke-width="2.4" stroke-linecap="round"/>
<ellipse cx="-7" cy="-40" rx="6.5" ry="4.2" transform="rotate(-35 -7 -40)" fill="#6B1220"/>
<ellipse cx="7" cy="-40" rx="6.5" ry="4.2" transform="rotate(35 7 -40)" fill="#6B1220"/>
<ellipse cx="-7" cy="-27" rx="6.5" ry="4.2" transform="rotate(-35 -7 -27)" fill="#6B1220"/>
<ellipse cx="7" cy="-27" rx="6.5" ry="4.2" transform="rotate(35 7 -27)" fill="#6B1220"/>
<ellipse cx="-7" cy="-14" rx="6.5" ry="4.2" transform="rotate(-35 -7 -14)" fill="#6B1220"/>
<ellipse cx="7" cy="-14" rx="6.5" ry="4.2" transform="rotate(35 7 -14)" fill="#6B1220"/>
<ellipse cx="-7" cy="-1" rx="6.5" ry="4.2" transform="rotate(-35 -7 -1)" fill="#6B1220"/>
<ellipse cx="7" cy="-1" rx="6.5" ry="4.2" transform="rotate(35 7 -1)" fill="#6B1220"/>
<ellipse cx="-7" cy="12" rx="6.5" ry="4.2" transform="rotate(-35 -7 12)" fill="#6B1220"/>
<ellipse cx="7" cy="12" rx="6.5" ry="4.2" transform="rotate(35 7 12)" fill="#6B1220"/>
<ellipse cx="-7" cy="25" rx="6.5" ry="4.2" transform="rotate(-35 -7 25)" fill="#6B1220"/>
<ellipse cx="7" cy="25" rx="6.5" ry="4.2" transform="rotate(35 7 25)" fill="#6B1220"/>
</g>
  <g transform="translate(290,165) scale(0.7)" opacity="0.85">
<line x1="0" y1="-46" x2="0" y2="30" stroke="#B8873B" stroke-width="2.4" stroke-linecap="round"/>
<ellipse cx="-7" cy="-40" rx="6.5" ry="4.2" transform="rotate(-35 -7 -40)" fill="#B8873B"/>
<ellipse cx="7" cy="-40" rx="6.5" ry="4.2" transform="rotate(35 7 -40)" fill="#B8873B"/>
<ellipse cx="-7" cy="-27" rx="6.5" ry="4.2" transform="rotate(-35 -7 -27)" fill="#B8873B"/>
<ellipse cx="7" cy="-27" rx="6.5" ry="4.2" transform="rotate(35 7 -27)" fill="#B8873B"/>
<ellipse cx="-7" cy="-14" rx="6.5" ry="4.2" transform="rotate(-35 -7 -14)" fill="#B8873B"/>
<ellipse cx="7" cy="-14" rx="6.5" ry="4.2" transform="rotate(35 7 -14)" fill="#B8873B"/>
<ellipse cx="-7" cy="-1" rx="6.5" ry="4.2" transform="rotate(-35 -7 -1)" fill="#B8873B"/>
<ellipse cx="7" cy="-1" rx="6.5" ry="4.2" transform="rotate(35 7 -1)" fill="#B8873B"/>
<ellipse cx="-7" cy="12" rx="6.5" ry="4.2" transform="rotate(-35 -7 12)" fill="#B8873B"/>
<ellipse cx="7" cy="12" rx="6.5" ry="4.2" transform="rotate(35 7 12)" fill="#B8873B"/>
<ellipse cx="-7" cy="25" rx="6.5" ry="4.2" transform="rotate(-35 -7 25)" fill="#B8873B"/>
<ellipse cx="7" cy="25" rx="6.5" ry="4.2" transform="rotate(35 7 25)" fill="#B8873B"/>
</g>
  <text x="200" y="60" text-anchor="middle" font-family="'Fraunces', serif" font-size="15" font-weight="600" fill="#4A0D16" letter-spacing="2">OTHER FLOURS</text>
  <text x="200" y="80" text-anchor="middle" font-family="'Karla', sans-serif" font-size="11" fill="#6B1220" letter-spacing="3" opacity="0.75">ALFAREED TRADERS</text>
</svg>